<?xml version="1.0" standalone="no"?>
<!DOCTYPE svg PUBLIC "-//W3C//DTD SVG 20010904//EN"
 "http://www.w3.org/TR/2001/REC-SVG-20010904/DTD/svg10.dtd">
<svg version="1.0" xmlns="http://www.w3.org/2000/svg"
 width="1326.000000pt" height="1326.000000pt" viewBox="0 0 1326.000000 1326.000000"
 preserveAspectRatio="xMidYMid meet">
<metadata>
Created by potrace 1.16, written by Peter Selinger 2001-2019
</metadata>
<g transform="translate(0.000000,1326.000000) scale(0.100000,-0.100000)"
fill="#000000" stroke="none">
<path d="M0 6660 l0 -6600 6615 0 6615 0 0 6600 0 6600 -6615 0 -6615 0 0
-6600z m6202 4493 c14 -12 28 -14 75 -7 32 4 61 7 64 6 3 -1 48 -4 100 -8 62
-5 98 -12 104 -21 12 -16 114 -39 160 -37 17 1 57 7 89 13 50 9 62 9 76 -4 9
-8 22 -15 28 -15 6 0 32 -7 58 -16 56 -19 148 -31 334 -45 74 -5 156 -16 182
-24 26 -8 76 -18 110 -21 35 -3 77 -9 93 -14 17 -4 68 -11 115 -14 83 -6 144
-21 171 -42 8 -6 21 -14 29 -18 8 -3 29 -15 45 -26 17 -11 38 -23 48 -26 10
-4 16 -13 13 -21 -8 -21 52 -121 77 -129 12 -3 29 -14 37 -24 15 -18 76 -38
140 -47 19 -2 49 -11 67 -19 58 -26 113 -16 113 22 0 21 3 23 33 17 35 -6 128
-90 174 -156 19 -27 31 -36 44 -32 18 6 92 -26 104 -45 8 -12 -23 -13 -61 -1
-55 17 -92 20 -108 8 -16 -11 -16 -15 -2 -42 20 -37 4 -46 -29 -15 -19 17 -22
29 -18 60 5 33 1 42 -22 64 -45 42 -83 56 -204 77 -100 18 -115 18 -130 5 -9
-8 -31 -16 -50 -18 -42 -4 -61 -29 -43 -58 19 -32 15 -32 -37 0 -26 17 -53 30
-60 30 -6 0 -11 4 -11 10 0 5 -12 13 -27 16 -16 4 -32 10 -38 14 -5 5 -40 20
-77 35 -38 15 -68 30 -68 35 0 4 13 25 28 46 39 54 44 72 32 110 -11 32 -32
50 -97 86 -40 22 -147 24 -183 3 -26 -15 -202 -21 -234 -9 -9 3 -16 17 -16 29
0 33 -27 39 -144 37 -114 -2 -202 -26 -278 -76 -27 -17 -48 -33 -48 -36 0 -3
-9 -16 -20 -30 -15 -18 -22 -22 -28 -13 -10 16 -144 52 -192 53 -19 0 -67 7
-105 15 -39 8 -108 15 -155 15 -83 0 -86 1 -112 30 -27 31 -27 31 -65 15 -75
-32 -173 -125 -173 -166 0 -14 -13 -17 -80 -21 -80 -3 -80 -3 -118 -46 -21
-23 -41 -42 -45 -42 -4 0 -16 9 -27 20 -24 24 -43 25 -64 4 -9 -8 -16 -11 -16
-6 0 5 6 15 14 21 8 6 16 24 20 39 17 83 18 92 7 92 -6 0 -11 6 -11 13 -1 13
-61 47 -85 47 -8 0 -34 6 -57 14 -24 8 -75 17 -114 21 -82 8 -104 -5 -104 -58
1 -40 37 -178 50 -191 6 -6 10 -18 10 -28 0 -19 37 -95 51 -104 24 -14 5 -23
-21 -9 -17 9 -55 15 -93 15 -55 0 -70 -4 -105 -30 -29 -21 -53 -30 -80 -30
-21 0 -56 -9 -77 -20 l-40 -20 -10 46 c-10 48 -41 75 -57 50 -5 -8 -8 -7 -8 2
0 17 -46 5 -85 -22 -51 -36 -111 -102 -133 -148 -22 -48 -39 -113 -23 -88 15
22 24 5 16 -31 -5 -23 -10 -28 -16 -18 -6 9 -9 10 -9 2 0 -6 7 -19 17 -28 14
-14 14 -18 2 -25 -10 -7 -18 -2 -29 16 -15 26 -15 26 -87 7 -35 -8 -33 -2 42
162 42 92 85 193 85 200 0 4 -8 -3 -18 -15 -20 -25 -22 -21 -22 37 0 12 -5 25
-11 28 -6 4 -6 12 -1 18 4 7 14 25 21 42 l13 30 -21 -19 c-12 -11 -31 -20 -44
-21 -12 -2 -21 -7 -20 -13 1 -5 -7 -12 -17 -15 -22 -6 -28 8 -7 16 6 3 7 6 1
6 -28 2 -144 -171 -144 -216 0 -7 -4 -21 -9 -31 -5 -9 -15 -51 -22 -92 -7 -41
-14 -78 -15 -82 -1 -5 -2 -21 -3 -38 -1 -22 -6 -30 -19 -30 -18 0 -52 47 -52
71 0 17 -30 49 -46 49 -21 0 -77 -60 -98 -105 -10 -22 -23 -48 -27 -57 -5 -10
-9 -27 -9 -39 0 -29 -39 -106 -67 -133 -13 -11 -23 -28 -23 -36 0 -8 -16 -28
-36 -44 -41 -32 -74 -31 -124 5 -37 28 -55 16 -64 -43 -10 -59 -14 -62 -51
-34 -19 15 -39 26 -45 26 -21 0 -38 -60 -28 -103 14 -65 15 -65 -121 -91 -60
-11 -68 -16 -88 -54 -1 -2 -33 21 -71 51 -76 61 -76 62 -50 150 10 33 15 37
41 35 23 -2 35 5 59 35 16 20 47 46 68 58 30 17 39 29 44 58 6 39 52 115 92
153 13 13 24 27 24 31 0 16 31 39 65 48 19 5 40 15 47 22 35 34 73 57 93 57
27 0 75 55 75 87 0 14 6 23 16 23 9 0 40 20 69 45 29 25 67 50 86 57 19 6 48
20 64 32 17 12 59 31 94 43 35 13 79 34 97 48 18 14 36 25 41 25 4 0 19 10 33
23 59 54 134 107 186 132 48 23 60 25 80 15 18 -10 32 -10 71 3 55 18 206 47
243 47 14 1 34 7 44 15 11 8 31 15 44 15 39 0 84 32 79 56 -4 23 29 44 123 79
25 9 60 23 78 31 18 8 44 14 57 14 27 0 65 32 65 54 0 9 17 16 48 21 50 7 106
20 162 37 97 31 289 31 322 1z m-2775 -1598 c1 -38 7 -114 14 -168 12 -97 9
-121 -13 -99 -26 26 -43 13 -56 -40 -17 -74 -68 -175 -154 -303 -50 -74 -83
-114 -103 -123 -41 -19 -135 -145 -142 -191 -4 -20 -12 -40 -18 -46 -7 -5 -22
-39 -34 -75 -13 -36 -27 -74 -33 -86 -13 -27 -15 -91 -5 -129 l9 -30 -24 23
c-14 12 -32 22 -41 22 -22 0 -70 22 -83 38 -21 28 -48 9 -62 -43 -24 -92 -3
-357 37 -458 18 -45 13 -85 -15 -135 -15 -26 -38 -68 -51 -93 -14 -26 -35 -51
-47 -57 -14 -6 -26 -23 -29 -41 -5 -22 -11 -29 -22 -25 -30 12 -37 42 -19 74
14 23 16 34 6 54 -16 36 -68 61 -99 47 -13 -6 -35 -11 -48 -11 -37 0 -49 -32
-41 -111 3 -37 9 -74 12 -83 8 -20 31 -21 50 -1 9 8 19 15 23 15 7 0 32 -43
45 -80 10 -25 30 -54 48 -67 13 -10 15 -20 8 -43 -10 -36 -4 -93 16 -137 8
-17 14 -37 14 -45 0 -7 7 -31 15 -53 20 -55 18 -69 -7 -80 -24 -10 -24 -13
-11 -97 3 -25 0 -44 -11 -60 -9 -12 -16 -30 -16 -39 0 -9 -7 -30 -15 -45 -19
-37 -19 -78 0 -98 8 -8 15 -21 15 -28 0 -10 -3 -9 -10 2 -8 12 -10 12 -15 -3
-8 -18 26 -79 54 -100 25 -17 40 -67 29 -96 -11 -32 -4 -68 34 -161 20 -49 32
-99 35 -145 5 -79 17 -120 46 -152 17 -19 18 -26 8 -51 -23 -56 -11 -92 44
-129 59 -41 66 -53 31 -53 -35 0 -41 -19 -22 -65 20 -47 20 -62 1 -81 -13 -13
-11 -21 15 -68 24 -41 30 -65 30 -110 0 -54 2 -58 34 -77 19 -11 39 -32 44
-47 5 -15 24 -42 41 -61 28 -31 40 -61 25 -61 -3 0 -19 14 -36 31 -34 33 -73
36 -92 7 -8 -14 -5 -23 17 -46 15 -15 27 -37 27 -49 0 -11 10 -28 23 -36 12
-9 40 -30 62 -45 42 -31 102 -131 97 -163 -2 -10 14 -36 34 -59 25 -28 38 -52
40 -77 7 -82 73 -153 142 -153 52 0 72 -15 66 -49 -9 -45 10 -71 54 -71 42 0
85 -34 152 -120 39 -50 45 -99 10 -80 -15 8 -21 6 -29 -7 -12 -22 17 -74 63
-115 37 -33 137 -88 160 -88 20 0 21 -17 1 -36 -24 -25 -18 -59 17 -88 17 -14
36 -26 41 -26 4 0 15 -7 23 -15 18 -18 65 -20 82 -3 7 7 12 25 12 41 0 16 4
26 10 22 6 -3 10 -28 10 -54 0 -51 7 -61 70 -95 54 -30 108 -75 183 -153 43
-45 80 -74 98 -78 16 -4 51 -21 77 -39 28 -18 85 -42 133 -55 131 -35 142 -42
174 -105 15 -31 35 -58 44 -60 9 -2 28 -7 44 -10 27 -6 27 -7 11 -38 -15 -30
-15 -32 2 -45 10 -7 28 -13 41 -13 13 0 23 -5 23 -12 0 -6 7 -20 17 -30 14
-16 34 -18 157 -19 78 0 134 -3 126 -6 -46 -16 -80 -37 -80 -47 0 -6 12 -24
28 -38 15 -15 35 -36 45 -48 26 -30 106 -28 144 4 l29 24 40 -19 c23 -10 63
-20 89 -22 37 -3 49 -9 51 -22 1 -10 8 -21 14 -25 9 -5 8 -13 -2 -29 -11 -20
-11 -24 6 -37 18 -13 60 -19 96 -14 8 1 25 10 38 21 38 30 112 20 112 -15 0
-29 27 -39 60 -22 16 9 44 23 61 32 28 15 32 15 48 0 37 -33 68 -10 55 40 -6
25 -5 24 74 -16 93 -47 128 -51 143 -16 10 22 13 22 38 10 14 -7 42 -29 61
-49 54 -56 106 -78 164 -71 57 6 66 16 59 64 -5 31 -4 34 11 29 10 -4 35 -7
55 -7 35 0 38 -2 33 -25 -3 -20 0 -25 17 -25 12 0 31 5 42 11 16 8 25 7 38 -5
22 -20 42 -20 67 -1 24 18 114 21 96 3 -26 -26 1 -84 33 -72 10 4 15 0 15 -14
0 -29 12 -34 86 -33 50 0 78 6 117 26 91 46 107 56 107 66 0 5 5 9 12 9 14 0
48 30 48 43 0 5 -20 7 -45 5 -25 -2 -45 0 -45 3 0 10 39 20 89 25 24 2 61 12
82 24 57 29 153 27 244 -6 137 -49 161 -51 236 -13 71 36 123 113 89 134 -21
13 -8 32 36 56 25 13 64 34 87 46 47 25 97 30 97 10 0 -7 16 -28 35 -47 34
-33 34 -33 62 -15 34 21 54 42 77 77 12 18 23 24 37 21 10 -3 26 0 34 7 16 13
55 94 55 114 0 7 16 31 35 54 33 37 38 40 73 35 20 -3 43 -9 51 -13 28 -15 71
15 147 101 22 26 58 56 90 76 24 16 104 53 113 53 4 0 31 24 59 54 38 39 52
62 52 83 0 18 11 41 30 61 17 18 30 36 30 38 0 3 19 22 41 42 23 20 89 91 147
157 58 66 115 129 125 140 42 44 123 152 139 185 9 19 19 52 23 72 3 21 10 38
15 38 5 0 11 8 14 18 5 14 15 16 56 14 46 -4 54 -1 80 27 17 17 30 39 30 50 0
10 7 24 15 31 17 14 20 56 4 65 -5 4 9 19 33 34 24 16 52 39 63 52 45 54 145
231 145 257 0 7 25 37 56 66 52 50 54 54 38 70 -10 11 -25 15 -39 12 -26 -7
-39 2 -26 18 5 6 29 49 54 96 24 47 60 114 79 150 40 74 102 236 113 295 4 21
18 59 31 82 15 27 24 60 24 85 0 25 7 49 17 60 13 15 14 23 5 44 -7 13 -12 39
-12 57 0 35 26 128 38 136 20 16 72 144 72 181 0 27 4 40 13 40 8 0 51 27 97
60 62 45 92 60 117 60 l33 0 0 -72 c0 -45 6 -84 15 -102 17 -32 20 -82 6 -90
-16 -11 -92 -179 -87 -193 3 -7 17 -18 31 -23 28 -11 56 -67 43 -90 -4 -8 -26
-62 -49 -120 -23 -57 -45 -111 -49 -120 -11 -23 -31 -81 -40 -119 -5 -18 -13
-38 -19 -44 -6 -6 -11 -22 -11 -37 -1 -14 -7 -36 -15 -50 -8 -14 -14 -37 -15
-51 0 -15 -7 -32 -15 -39 -8 -7 -15 -22 -15 -34 -1 -11 -7 -32 -15 -46 -8 -14
-15 -36 -15 -50 0 -14 -7 -34 -15 -44 -8 -11 -15 -26 -15 -34 0 -8 -6 -28 -14
-45 -7 -18 -19 -48 -26 -67 -21 -57 -113 -263 -130 -290 -5 -8 -21 -37 -35
-65 -37 -73 -131 -209 -182 -264 -25 -28 -43 -89 -50 -171 -5 -53 -6 -56 -46
-73 -119 -52 -127 -58 -127 -84 0 -15 7 -35 16 -45 16 -17 15 -20 -11 -58 -15
-22 -67 -77 -115 -122 -94 -89 -110 -103 -240 -213 -47 -40 -109 -98 -139
-129 -52 -55 -54 -56 -77 -41 -29 19 -43 19 -68 0 -18 -14 -18 -16 -3 -33 15
-16 11 -23 -66 -103 -51 -53 -93 -89 -111 -93 -16 -4 -65 -25 -110 -47 -91
-44 -114 -47 -139 -19 -23 27 -53 25 -83 -6 -21 -20 -25 -33 -22 -60 4 -31 1
-37 -26 -51 -37 -19 -89 -58 -171 -129 -33 -29 -72 -55 -87 -59 -23 -6 -155
-69 -189 -91 -26 -16 -236 -89 -289 -99 -19 -4 -54 -13 -78 -21 -23 -8 -62
-14 -85 -14 -34 0 -44 -4 -52 -22 -6 -13 -23 -29 -38 -36 -36 -17 -45 -41 -23
-57 22 -16 14 -21 -50 -30 -33 -4 -54 -3 -58 4 -4 6 -39 9 -90 7 -68 -2 -91
-8 -135 -31 -50 -28 -53 -28 -81 -12 -41 24 -66 21 -97 -13 -29 -33 -50 -38
-59 -15 -8 20 -176 22 -193 2 -6 -8 -9 -16 -7 -18 2 -2 6 -15 9 -29 l6 -26
-122 -2 c-110 -2 -179 1 -527 27 -58 5 -116 11 -130 15 -14 4 -63 11 -109 17
-46 5 -102 14 -125 19 -23 5 -58 10 -79 10 -22 0 -62 7 -90 15 -29 8 -54 14
-57 14 -3 -1 -31 14 -62 35 -31 20 -62 36 -69 36 -7 0 -36 8 -66 18 -52 17
-67 34 -38 46 8 3 15 15 15 26 0 20 -32 60 -49 60 -5 0 -14 7 -21 15 -15 19
-90 21 -90 3 -1 -7 -19 -26 -41 -41 -31 -21 -39 -32 -34 -47 6 -18 2 -20 -41
-20 -31 0 -54 -6 -67 -18 -15 -13 -35 -17 -86 -16 -55 2 -77 8 -136 39 -38 20
-83 45 -100 56 -16 10 -38 22 -47 25 -10 4 -18 10 -18 14 0 4 -10 12 -22 19
-13 6 -36 20 -53 31 -16 10 -59 34 -95 51 -36 18 -76 40 -90 49 -14 10 -43 23
-65 30 -40 12 -151 81 -190 117 -11 10 -33 28 -49 40 -15 13 -57 49 -92 82
-52 48 -64 65 -64 90 0 29 -3 31 -72 51 -123 36 -157 51 -206 94 -68 59 -96
95 -102 129 -6 35 -15 41 -93 62 -63 17 -127 67 -154 119 -9 17 -48 62 -86
100 -67 67 -70 72 -68 114 1 43 1 44 -137 180 -116 115 -140 143 -146 175 -4
21 -4 47 -1 57 8 24 -11 60 -30 60 -8 0 -52 39 -98 87 -45 47 -90 93 -99 102
-10 8 -18 25 -18 36 0 11 -13 28 -28 39 -32 21 -62 86 -62 133 0 18 -4 34 -9
37 -5 4 -12 30 -16 59 -13 92 -52 147 -105 147 -15 0 -22 8 -26 30 -4 16 -13
35 -20 41 -8 6 -14 18 -14 26 0 7 -5 19 -10 26 -27 32 -110 147 -110 152 0 4
-7 13 -15 21 -8 9 -15 33 -15 54 0 34 4 42 30 55 22 12 30 23 30 44 0 40 -40
75 -79 69 -32 -5 -38 1 -22 17 5 6 19 34 31 64 11 30 32 77 44 105 65 141 70
173 28 191 -26 11 -26 30 -2 182 15 92 2 126 -48 131 l-33 3 2 62 c1 34 0 80
-3 102 -3 22 -2 63 4 90 16 83 25 218 17 253 -4 19 -17 45 -30 58 -20 21 -21
29 -13 86 12 90 13 261 1 276 -13 16 -11 130 2 191 6 26 13 59 16 74 4 21 13
29 35 34 47 9 53 24 34 82 -16 49 -15 52 6 95 27 56 20 83 -26 102 -57 24
-106 116 -69 130 8 3 17 14 20 23 3 10 15 17 28 17 21 -1 22 4 28 79 5 58 14
95 33 132 14 29 26 58 26 64 0 26 35 67 61 73 21 4 30 13 34 33 10 45 22 69
59 118 26 33 34 51 27 62 -9 17 16 93 31 93 4 0 8 4 8 9 0 6 14 30 30 54 17
25 30 47 30 50 0 4 12 25 28 49 15 24 33 52 40 63 7 11 15 28 18 38 4 9 9 17
13 17 4 0 15 17 26 38 84 159 253 374 307 387 26 7 59 53 77 108 9 25 19 37
31 37 12 0 26 16 39 43 12 24 21 47 21 51 0 4 16 37 36 72 l36 65 47 -3 46 -3
2 -70z m4618 -1665 c95 -36 86 -303 -22 -645 -71 -226 -193 -554 -260 -700
-141 -305 -256 -482 -412 -634 -228 -222 -419 -262 -553 -113 -33 36 -98 158
-98 184 0 6 -11 34 -24 62 -39 85 -58 234 -60 473 -1 156 -4 205 -11 183 -5
-16 -13 -32 -17 -36 -5 -4 -8 -13 -8 -20 0 -18 -113 -250 -169 -346 -127 -219
-271 -383 -431 -491 -103 -69 -175 -97 -253 -97 -134 0 -215 92 -269 305 -20
82 -22 113 -23 350 0 196 5 293 19 395 22 167 84 447 132 600 27 83 37 136 39
190 1 67 6 84 42 152 58 109 80 135 137 163 57 29 83 31 131 11 45 -19 46 -49
4 -94 -63 -67 -139 -239 -197 -442 -82 -293 -108 -437 -143 -795 -16 -171 -7
-454 16 -525 46 -137 129 -203 228 -181 119 27 318 218 462 441 80 124 191
340 236 460 17 47 37 101 45 120 63 167 89 248 105 325 11 50 31 141 45 203
20 85 24 116 15 125 -25 25 -4 124 37 171 9 10 37 32 61 48 52 32 122 38 159
12 29 -20 28 -48 -2 -87 -65 -85 -112 -217 -156 -437 -44 -218 -51 -283 -57
-558 -7 -317 7 -464 63 -630 44 -133 111 -195 210 -195 153 0 334 206 533 606
142 286 250 607 331 987 18 82 31 274 24 347 -6 68 -5 73 19 97 29 29 35 30
72 16z m1651 -48 c88 -46 132 -121 141 -242 5 -63 2 -84 -16 -125 -22 -51 -57
-84 -71 -68 -4 4 -13 49 -18 100 -18 152 -59 204 -190 237 -145 38 -377 -2
-557 -96 -120 -63 -234 -167 -275 -253 -56 -116 -24 -274 78 -386 85 -95 183
-154 382 -230 63 -24 130 -54 149 -66 19 -13 39 -23 45 -23 6 0 36 -10 66 -23
299 -124 373 -271 259 -511 -85 -181 -376 -396 -618 -458 -20 -5 -51 -13 -69
-18 -19 -4 -89 -14 -155 -20 -105 -11 -135 -10 -215 4 -185 32 -248 95 -246
242 2 68 26 104 69 104 29 0 33 -4 45 -42 33 -104 64 -143 145 -180 46 -21 64
-23 215 -23 189 0 251 14 394 88 206 106 295 215 304 369 4 69 2 84 -22 133
-46 93 -145 162 -343 240 -217 85 -268 107 -303 129 -19 13 -67 44 -107 70
-78 50 -163 137 -192 195 -46 90 -52 229 -16 336 76 223 356 440 675 521 140
35 373 33 446 -4z m-5281 8 c4 -6 142 -10 381 -10 328 0 375 -2 381 -15 6 -17
-19 -49 -52 -68 -14 -8 -134 -14 -378 -17 -303 -4 -359 -7 -367 -20 -11 -18
-71 -213 -85 -275 -3 -16 -13 -59 -21 -95 -31 -137 -69 -360 -89 -520 -60
-482 -77 -667 -79 -850 0 -85 3 -172 8 -193 8 -35 6 -39 -28 -72 -40 -37 -60
-42 -100 -24 -25 12 -49 59 -41 82 4 11 11 97 51 607 35 454 70 762 114 985 5
28 14 106 19 175 6 69 13 139 17 156 l6 31 -54 6 c-29 4 -206 7 -393 7 -187 0
-346 4 -354 9 -15 10 -5 36 26 63 16 14 68 16 453 20 308 3 441 7 455 16 25
14 121 16 130 2z"/>
</g>
</svg>
